<?xml version="1.0" standalone="no"?>
<!DOCTYPE svg PUBLIC "-//W3C//DTD SVG 20010904//EN"
 "http://www.w3.org/TR/2001/REC-SVG-20010904/DTD/svg10.dtd">
<svg version="1.0" xmlns="http://www.w3.org/2000/svg"
 width="512.000000pt" height="512.000000pt" viewBox="0 0 512.000000 512.000000"
 preserveAspectRatio="xMidYMid meet">

<g transform="translate(0.000000,512.000000) scale(0.100000,-0.100000)"
fill="#000000" stroke="none">
<path d="M2172 4727 c-13 -13 -27 -39 -32 -58 -15 -50 -46 -235 -66 -389 l-17
-135 -106 -43 c-58 -24 -118 -48 -132 -54 -24 -10 -39 0 -232 150 -114 88
-221 163 -237 167 -36 8 -75 -12 -161 -82 -84 -67 -332 -321 -390 -398 -70
-92 -68 -100 82 -288 70 -87 143 -182 164 -213 l38 -54 -31 -68 c-17 -37 -42
-96 -55 -132 l-25 -65 -268 -41 c-148 -22 -277 -44 -287 -49 -44 -19 -47 -44
-47 -418 l0 -354 24 -26 c27 -29 10 -25 331 -72 132 -20 242 -39 246 -43 4 -4
14 -32 24 -62 10 -30 35 -92 55 -136 l38 -82 -81 -103 c-225 -289 -237 -306
-237 -352 0 -50 13 -70 125 -193 114 -125 381 -373 410 -380 14 -3 36 -3 49 0
13 3 119 78 235 167 l212 160 92 -39 c51 -22 108 -45 128 -51 43 -14 35 17 84
-311 20 -129 38 -243 41 -252 3 -10 17 -27 31 -38 25 -19 39 -20 388 -20 l362
0 22 24 c12 13 28 48 36 77 14 55 59 335 71 444 l6 60 107 43 c58 24 118 48
132 54 25 11 38 2 225 -145 110 -87 215 -162 235 -168 29 -9 42 -8 70 6 59 30
162 121 305 268 153 157 234 257 234 290 0 35 -19 64 -147 223 -131 165 -183
237 -183 254 0 6 10 30 22 53 12 23 36 78 53 122 l31 79 270 42 c148 23 277
45 287 49 44 19 47 45 47 410 0 373 -3 395 -52 411 -13 4 -142 26 -287 48
l-263 41 -28 75 c-15 41 -41 105 -58 142 l-30 66 81 104 c227 290 237 305 237
351 0 40 -7 52 -80 140 -81 97 -391 401 -433 424 -50 28 -69 19 -298 -153
l-221 -166 -77 35 c-42 19 -99 42 -127 51 -46 15 -53 21 -58 49 -3 18 -22 138
-41 267 -20 129 -38 243 -41 252 -3 10 -17 27 -31 38 -25 19 -39 20 -388 20
l-362 0 -21 -23z m613 -1471 c113 -36 197 -89 290 -181 92 -92 144 -175 182
-290 40 -118 40 -332 0 -450 -38 -115 -90 -198 -182 -290 -92 -92 -175 -144
-290 -182 -72 -24 -94 -27 -225 -27 -131 0 -153 3 -225 27 -115 38 -198 90
-290 182 -92 92 -144 175 -182 290 -24 72 -27 94 -27 225 0 131 3 153 27 225
83 248 285 431 542 491 96 22 281 13 380 -20z"/>
</g>
</svg>
